<mxfile host="app.diagrams.net" modified="2024-05-06T20:54:13.848Z" agent="Mozilla/5.0 (Windows NT 10.0; Win64; x64) AppleWebKit/537.36 (KHTML, like Gecko) Chrome/124.0.0.0 Safari/537.36" etag="cybweauBRuTUEVNtbx7K" version="24.3.1" type="device">
  <diagram name="Strona-1" id="CfKYnQyr3-O-R9rkYY1g">
    <mxGraphModel dx="955" dy="506" grid="1" gridSize="10" guides="1" tooltips="1" connect="1" arrows="1" fold="1" page="1" pageScale="1" pageWidth="827" pageHeight="1169" math="0" shadow="0">
      <root>
        <mxCell id="0" />
        <mxCell id="1" parent="0" />
        <mxCell id="gSdPY9Yw4Zq55Vq2tBp_-28" style="edgeStyle=orthogonalEdgeStyle;rounded=0;orthogonalLoop=1;jettySize=auto;html=1;exitX=1;exitY=0.5;exitDx=0;exitDy=0;entryX=0;entryY=0.5;entryDx=0;entryDy=0;" edge="1" parent="1" source="gSdPY9Yw4Zq55Vq2tBp_-25" target="gSdPY9Yw4Zq55Vq2tBp_-26">
          <mxGeometry relative="1" as="geometry" />
        </mxCell>
        <mxCell id="gSdPY9Yw4Zq55Vq2tBp_-33" value="" style="edgeStyle=orthogonalEdgeStyle;rounded=0;orthogonalLoop=1;jettySize=auto;html=1;entryX=0;entryY=0.5;entryDx=0;entryDy=0;" edge="1" parent="1" source="gSdPY9Yw4Zq55Vq2tBp_-25" target="gSdPY9Yw4Zq55Vq2tBp_-32">
          <mxGeometry relative="1" as="geometry">
            <Array as="points">
              <mxPoint x="120" y="270" />
            </Array>
          </mxGeometry>
        </mxCell>
        <mxCell id="gSdPY9Yw4Zq55Vq2tBp_-25" value="A" style="ellipse;whiteSpace=wrap;html=1;aspect=fixed;" vertex="1" parent="1">
          <mxGeometry x="80" y="120" width="80" height="80" as="geometry" />
        </mxCell>
        <mxCell id="gSdPY9Yw4Zq55Vq2tBp_-29" style="edgeStyle=orthogonalEdgeStyle;rounded=0;orthogonalLoop=1;jettySize=auto;html=1;entryX=0;entryY=0.5;entryDx=0;entryDy=0;" edge="1" parent="1" source="gSdPY9Yw4Zq55Vq2tBp_-26" target="gSdPY9Yw4Zq55Vq2tBp_-27">
          <mxGeometry relative="1" as="geometry" />
        </mxCell>
        <mxCell id="gSdPY9Yw4Zq55Vq2tBp_-26" value="B" style="ellipse;whiteSpace=wrap;html=1;aspect=fixed;" vertex="1" parent="1">
          <mxGeometry x="250" y="120" width="80" height="80" as="geometry" />
        </mxCell>
        <mxCell id="gSdPY9Yw4Zq55Vq2tBp_-31" value="" style="edgeStyle=orthogonalEdgeStyle;rounded=0;orthogonalLoop=1;jettySize=auto;html=1;" edge="1" parent="1" source="gSdPY9Yw4Zq55Vq2tBp_-27" target="gSdPY9Yw4Zq55Vq2tBp_-30">
          <mxGeometry relative="1" as="geometry" />
        </mxCell>
        <mxCell id="gSdPY9Yw4Zq55Vq2tBp_-27" value="D" style="ellipse;whiteSpace=wrap;html=1;aspect=fixed;" vertex="1" parent="1">
          <mxGeometry x="430" y="120" width="80" height="80" as="geometry" />
        </mxCell>
        <mxCell id="gSdPY9Yw4Zq55Vq2tBp_-30" value="F" style="ellipse;whiteSpace=wrap;html=1;aspect=fixed;" vertex="1" parent="1">
          <mxGeometry x="590" y="120" width="80" height="80" as="geometry" />
        </mxCell>
        <mxCell id="gSdPY9Yw4Zq55Vq2tBp_-35" value="" style="edgeStyle=orthogonalEdgeStyle;rounded=0;orthogonalLoop=1;jettySize=auto;html=1;" edge="1" parent="1" source="gSdPY9Yw4Zq55Vq2tBp_-32" target="gSdPY9Yw4Zq55Vq2tBp_-34">
          <mxGeometry relative="1" as="geometry">
            <Array as="points">
              <mxPoint x="290" y="360" />
            </Array>
          </mxGeometry>
        </mxCell>
        <mxCell id="gSdPY9Yw4Zq55Vq2tBp_-32" value="C" style="ellipse;whiteSpace=wrap;html=1;aspect=fixed;" vertex="1" parent="1">
          <mxGeometry x="250" y="230" width="80" height="80" as="geometry" />
        </mxCell>
        <mxCell id="gSdPY9Yw4Zq55Vq2tBp_-34" value="E" style="ellipse;whiteSpace=wrap;html=1;aspect=fixed;" vertex="1" parent="1">
          <mxGeometry x="430" y="330" width="80" height="80" as="geometry" />
        </mxCell>
        <mxCell id="gSdPY9Yw4Zq55Vq2tBp_-36" style="edgeStyle=orthogonalEdgeStyle;rounded=0;orthogonalLoop=1;jettySize=auto;html=1;" edge="1" parent="1" source="gSdPY9Yw4Zq55Vq2tBp_-32">
          <mxGeometry relative="1" as="geometry">
            <mxPoint x="630" y="200" as="targetPoint" />
          </mxGeometry>
        </mxCell>
      </root>
    </mxGraphModel>
  </diagram>
</mxfile>
